<svg xmlns="http://www.w3.org/2000/svg" viewBox="0 0 38.88 50.09"><g id="Layer_2" data-name="Layer 2"><g id="Layer_1-2" data-name="Layer 1"><g id="logoBlack"><path id="Path_5" data-name="Path 5" d="M38.88,19.35V30.82a19.29,19.29,0,0,1-1.4,7.08c-.11.27-.22.54-.34.8l0,.1c-.22.48-.45.94-.71,1.39l-.18.31a19.67,19.67,0,0,1-3,3.9,16.75,16.75,0,0,1-1.33,1.2,19.55,19.55,0,0,1-4.26,2.7c-.52.24-1.06.46-1.61.66s-1.09.36-1.65.51a19.57,19.57,0,0,1-3.88.59h0c-.34,0-.67,0-1,0s-.68,0-1,0h0a18.81,18.81,0,0,1-3.65-.54,17.34,17.34,0,0,1-1.7-.5c-.61-.21-1.2-.45-1.79-.72A19.5,19.5,0,0,1,7,45.61c-.46-.38-.9-.79-1.33-1.21a19.67,19.67,0,0,1-3-3.9l-.24-.42c-.23-.41-.45-.84-.65-1.27a.31.31,0,0,0-.05-.1c-.12-.27-.23-.54-.34-.81A19.49,19.49,0,0,1,0,30.82V29H13.08v3.31a6.32,6.32,0,0,0,1.49,4.07h0a6.48,6.48,0,0,0,4.87,2.29h.09a6.46,6.46,0,0,0,5-2.36,6.28,6.28,0,0,0,1.43-4V19.44a6.4,6.4,0,0,0-6.45-6.36h-.09a8.17,8.17,0,0,1-5.1-1.79,8.29,8.29,0,0,1-.92-.86h0l-.34-.4a8.17,8.17,0,0,1-1.79-5.1V0h10a18.54,18.54,0,0,1,2.84.49A16.73,16.73,0,0,1,26,1l.78.3.84.36.2.1.12.05a17.45,17.45,0,0,1,1.59.88A19.5,19.5,0,0,1,36.14,9.4c.31.52.6,1.06.86,1.61l.09.18v.1h0c.26.59.5,1.19.71,1.8a19.67,19.67,0,0,1,1,6.27ZM37.09,30.64V19.44a17.71,17.71,0,0,0-1.18-6.36c-.12-.33-.26-.64-.4-1s-.27-.56-.41-.83-.23-.44-.36-.65a17.7,17.7,0,0,0-6.5-6.5c-.21-.13-.43-.25-.65-.36l-.09,0-.74-.36L26,3l-.33-.13a17.81,17.81,0,0,0-6.21-1.12H13.08V4.92a6.4,6.4,0,0,0,6.42,6.37h0a8.13,8.13,0,0,1,5,1.79,7.72,7.72,0,0,1,1,1c.15.17.3.34.43.52a8.09,8.09,0,0,1,1.61,4.87v12.9A8.15,8.15,0,0,1,26,37.21a7.91,7.91,0,0,1-.52.63h0A8.16,8.16,0,0,1,16,39.74a8.44,8.44,0,0,1-1-.54,8.12,8.12,0,0,1-1.62-1.36h0c-.11-.13-.23-.26-.34-.4a8.17,8.17,0,0,1-1.79-5.1V30.82H1.79v1.61A17.87,17.87,0,0,0,3.25,37.9c.13.27.25.54.39.8A18.14,18.14,0,0,0,7,43.24q.65.63,1.35,1.2a17.58,17.58,0,0,0,3,1.93,16.84,16.84,0,0,0,1.79.8l.37.14a17.83,17.83,0,0,0,12.2-.11l.33-.13a15.69,15.69,0,0,0,1.61-.75,17.67,17.67,0,0,0,4.27-3.12,17.7,17.7,0,0,0,3.29-4.5c.14-.26.27-.53.39-.8a18.44,18.44,0,0,0,.84-2.29,18.08,18.08,0,0,0,.71-4.79Z"/><path id="Path_6" data-name="Path 6" d="M19.44,13.08H13.08V29H11.29V11.29h3.05A8.17,8.17,0,0,0,19.44,13.08Z"/><path id="Path_7" data-name="Path 7" d="M11.29,0V1.79H1.79v9.4l-.05.1h.05V29H0V0Z"/></g></g></g></svg>